<?xml version="1.0" encoding="utf-8"?>
<!-- Generator: Adobe Illustrator 19.2.1, SVG Export Plug-In . SVG Version: 6.00 Build 0)  -->
<svg version="1.1" id="Layer_1" xmlns="http://www.w3.org/2000/svg" xmlns:xlink="http://www.w3.org/1999/xlink" x="0px" y="0px"
	 viewBox="0 0 400 100" style="enable-background:new 0 0 400 100;" xml:space="preserve">
<style type="text/css">
	.st0{fill:#FFFFFF;}
	.st1{fill:#CFE2E2;}
	.st2{fill:#304F4F;}
</style>
<g>
	<path class="st0" d="M124.3,56.6c-0.7-0.1-1.4-0.1-2.1-0.1s-1.3,0-2,0c-0.6,0-1.3,0-2,0s-1.3,0-2,0.1c-0.5-1.5-1-3-1.5-4.6
		s-1.1-3.1-1.7-4.7c-1,0-2-0.1-3-0.1s-2,0-3,0c-0.8,0-1.6,0-2.4,0s-1.6,0-2.4,0.1c-0.6,1.6-1.2,3.1-1.7,4.7c-0.5,1.6-1,3.1-1.4,4.6
		c-0.4-0.1-0.7-0.1-1.1-0.1s-0.7,0-1.1,0s-0.7,0-1.1,0s-0.8,0-1.2,0.1c0.4-0.8,0.9-1.9,1.5-3.3c0.6-1.4,1.3-3,2-4.8s1.5-3.7,2.4-5.8
		c0.8-2,1.7-4.1,2.5-6.2c0.8-2.1,1.7-4.2,2.5-6.2s1.6-3.9,2.2-5.7c0.3,0.1,0.6,0.1,0.9,0.2c0.3,0,0.6,0.1,0.9,0.1s0.6,0,0.9-0.1
		c0.3,0,0.6-0.1,0.9-0.2c1,2.6,2,5.4,3.2,8.4c1.1,3,2.3,5.9,3.4,8.8c1.1,2.9,2.2,5.6,3.3,8.2C122.4,52.7,123.4,54.9,124.3,56.6z
		 M107.9,33.6c-0.8,1.8-1.6,3.7-2.3,5.5c-0.7,1.8-1.4,3.6-2.1,5.5h8.5c-0.7-1.9-1.3-3.7-2-5.5S108.6,35.4,107.9,33.6z"/>
	<path class="st0" d="M153.9,34.4c0.7,0.2,1.3,0.2,1.8,0.2c0.3,0,0.6,0,0.9-0.1c0.3,0,0.6-0.1,1-0.2c-0.2,0.4-0.5,1.1-0.9,2
		s-0.8,2-1.2,3.3s-0.9,2.6-1.4,4.1s-1,3-1.5,4.5s-1,3-1.5,4.4c-0.5,1.5-0.9,2.7-1.3,3.9c-0.4-0.1-0.9-0.1-1.3-0.1
		c-0.4,0-0.8,0-1.3,0c-0.4,0-0.9,0-1.3,0c-0.4,0-0.9,0-1.3,0.1c-0.4-1.2-0.8-2.4-1.2-3.8c-0.4-1.3-0.8-2.7-1.2-4s-0.8-2.6-1.2-3.8
		s-0.7-2.4-1-3.5h-0.1c-0.8,2.6-1.6,5.1-2.4,7.6c-0.8,2.5-1.5,5-2.2,7.4c-0.4-0.1-0.9-0.1-1.3-0.1c-0.4,0-0.9,0-1.3,0
		c-0.4,0-0.9,0-1.3,0c-0.5,0-0.9,0-1.4,0.1c-0.3-1.1-0.7-2.5-1.2-4c-0.4-1.5-0.9-3-1.4-4.5s-1-3.1-1.5-4.6s-0.9-2.9-1.4-4.1
		c-0.4-1.2-0.8-2.3-1.1-3.2c-0.3-0.9-0.5-1.5-0.6-1.8c0.7,0.1,1.3,0.1,1.9,0.2c0.6,0,1.1,0.1,1.7,0.1s1.1,0,1.7-0.1
		c0.6,0,1.1-0.1,1.7-0.2c0.7,2.7,1.5,5.4,2.3,8.2s1.6,5.4,2.3,7.7h0.1c0.9-2.7,1.7-5.4,2.4-8s1.5-5.3,2.2-8c0.4,0.1,0.9,0.1,1.3,0.2
		c0.4,0,0.9,0.1,1.3,0.1c0.4,0,0.9,0,1.3-0.1c0.4,0,0.9-0.1,1.3-0.2c0.7,2.7,1.5,5.4,2.3,8s1.6,5.3,2.4,8h0.1
		C150.9,45,152.5,39.7,153.9,34.4z"/>
	<path class="st0" d="M167,49.1c0.2,1.1,0.6,2,1.1,2.8s1.2,1.4,1.9,1.8c0.8,0.4,1.7,0.7,2.7,0.7c2.1,0,4-0.7,5.7-2.1l0.6,0.4l-1,2.6
		c-0.8,0.6-1.7,1.1-2.8,1.4c-1.1,0.4-2.5,0.5-4.3,0.5c-1.5,0-2.9-0.2-4.3-0.6c-1.4-0.4-2.5-1.1-3.6-2.1c-1-1-1.8-2.2-2.4-3.6
		c-0.6-1.5-0.9-3.2-0.9-5.2s0.3-3.7,0.8-5.2s1.3-2.7,2.2-3.7c1-1,2.1-1.7,3.4-2.2c1.3-0.5,2.7-0.7,4.3-0.7c3,0,5.4,0.9,7,2.7
		s2.4,4.3,2.4,7.6v1c0,0.3,0,0.5,0,0.6h-13.3C166.7,46.8,166.8,48,167,49.1z M172.9,38c-0.5-1.4-1.4-2.1-2.6-2.1
		c-0.7,0-1.2,0.2-1.7,0.7s-0.8,1.1-1.1,1.8s-0.5,1.5-0.6,2.4s-0.2,1.8-0.3,2.7h7.1C173.7,41.2,173.4,39.4,172.9,38z"/>
	<path class="st0" d="M185.3,52.4c0.3,0.4,0.7,0.8,1.1,1.2c0.4,0.4,0.9,0.6,1.5,0.9c0.6,0.2,1.3,0.3,2.1,0.3c1.1,0,1.9-0.3,2.5-0.8
		c0.6-0.6,0.9-1.2,0.9-1.8c0-0.7-0.3-1.3-0.8-1.7s-1.2-0.8-2-1.2s-1.6-0.7-2.6-1.1c-0.9-0.4-1.8-0.8-2.6-1.4c-0.8-0.6-1.4-1.3-2-2.2
		c-0.5-0.9-0.8-2-0.8-3.3s0.2-2.4,0.7-3.4c0.5-0.9,1.1-1.7,1.9-2.3c0.8-0.6,1.6-1,2.6-1.3s1.9-0.4,2.9-0.4c1.3,0,2.4,0.2,3.4,0.6
		c1,0.4,2,0.9,3.1,1.6c-0.3,0.6-0.5,1.3-0.7,2s-0.3,1.4-0.4,2.1H195c-0.1-0.4-0.2-0.8-0.5-1.2c-0.2-0.4-0.5-0.9-0.9-1.3
		c-0.4-0.4-0.8-0.7-1.3-1s-1.2-0.4-1.9-0.4c-0.9,0-1.7,0.2-2.3,0.7s-0.9,1.1-0.9,1.9c0,0.7,0.3,1.3,0.8,1.8c0.5,0.4,1.2,0.8,2,1.2
		c0.8,0.3,1.7,0.7,2.6,1c1,0.3,1.8,0.8,2.6,1.3s1.5,1.2,2,2.1c0.5,0.9,0.8,2,0.8,3.3c0,1.4-0.2,2.5-0.7,3.5s-1.2,1.8-2,2.4
		c-0.8,0.6-1.8,1.1-2.8,1.4c-1.1,0.3-2.2,0.4-3.4,0.4c-1.4,0-2.6-0.2-3.7-0.6c-1.1-0.4-2-0.8-2.6-1.2c0.4-1.5,0.6-3,0.7-4.4h1.2
		C184.8,51.5,185,51.9,185.3,52.4z"/>
	<path class="st0" d="M201.9,40.7c0.6-1.5,1.5-2.8,2.5-3.9c1-1,2.3-1.8,3.6-2.3s2.8-0.8,4.2-0.8c3.6,0,6.4,1,8.4,3s3,4.8,3,8.3
		c0,1.9-0.3,3.6-0.8,5.1c-0.6,1.5-1.3,2.8-2.3,3.9c-1,1.1-2.2,1.9-3.6,2.4c-1.4,0.5-2.9,0.8-4.6,0.8c-1.4,0-2.7-0.2-4.1-0.6
		c-1.3-0.4-2.5-1-3.6-1.9s-1.9-2-2.6-3.4c-0.7-1.4-1-3.2-1-5.2C200.9,44.1,201.2,42.3,201.9,40.7z M215.7,38.1
		c-0.7-1.5-1.8-2.2-3.4-2.2c-1.4,0-2.5,0.8-3.3,2.5s-1.2,4.3-1.2,7.8c0,1.3,0.1,2.5,0.2,3.6c0.2,1.1,0.4,2.1,0.8,2.9
		c0.4,0.8,0.8,1.5,1.4,1.9c0.6,0.5,1.3,0.7,2.1,0.7c3,0,4.4-3.6,4.4-10.9C216.7,41.7,216.4,39.6,215.7,38.1z"/>
	<path class="st0" d="M233.9,37.9c0.9-1.3,1.9-2.3,3-3c1.2-0.7,2.5-1.1,4-1.1c1.4,0,2.6,0.4,3.6,1.1c1,0.8,1.8,1.8,2.3,3.3
		c0.9-1.4,2-2.5,3.2-3.3s2.5-1.1,3.9-1.1c2.3,0,4.1,0.7,5.3,2c1.2,1.3,1.9,3.5,1.9,6.5c0,1.6,0,3-0.1,4.2s-0.1,2.4-0.1,3.6
		c0,1,0,2.1,0.1,3.2c0,1.2,0.1,2.3,0.2,3.4c-0.4-0.1-0.9-0.1-1.5-0.1s-1.3,0-1.9,0c-0.7,0-1.3,0-1.9,0c-0.6,0-1.1,0-1.5,0.1
		c0.2-1.6,0.4-3.5,0.4-5.7c0.1-2.2,0.1-4.7,0.1-7.5c0-1.9-0.3-3.4-1-4.3c-0.6-0.9-1.6-1.4-2.7-1.4c-0.7,0-1.3,0.2-1.8,0.5
		s-0.9,0.8-1.1,1.3c-0.3,0.5-0.5,1.1-0.6,1.7c-0.1,0.6-0.1,1.2-0.1,1.8v3.3c0,1.9,0,3.6,0.1,5.3c0,1.7,0.1,3.3,0.3,4.8
		c-0.4-0.1-0.9-0.1-1.5-0.1s-1.3,0-2,0s-1.4,0-1.9,0c-0.6,0-1.1,0-1.5,0.1c0.2-1.5,0.3-3.1,0.3-4.8s0.1-3.4,0.1-5.3v-2.8
		c0-1.8-0.2-3.3-0.7-4.3s-1.3-1.5-2.6-1.5c-1.4,0-2.4,0.6-3,1.8s-1,2.9-1,5v1.8c0,1.9,0,3.6,0.1,5.3c0,1.7,0.1,3.3,0.3,4.8
		c-0.4-0.1-0.9-0.1-1.5-0.1s-1.3,0-2,0s-1.4,0-1.9,0c-0.6,0-1.1,0-1.5,0.1c0.2-1.5,0.3-3.1,0.3-4.8s0.1-3.4,0.1-5.3v-1.8
		c0-1.9,0-3.6-0.1-5.3c0-1.6-0.1-3.3-0.3-5c0.6,0.1,1.1,0.1,1.6,0.2c0.5,0,1.1,0.1,1.6,0.1s1.1,0,1.6-0.1c0.5,0,1.1-0.1,1.7-0.2
		L233.9,37.9L233.9,37.9z"/>
	<path class="st0" d="M272.3,49.1c0.2,1.1,0.6,2,1.1,2.8s1.2,1.4,1.9,1.8c0.8,0.4,1.7,0.7,2.7,0.7c2.1,0,4-0.7,5.7-2.1l0.6,0.4
		l-1,2.6c-0.8,0.6-1.7,1.1-2.8,1.4c-1.1,0.4-2.5,0.5-4.3,0.5c-1.5,0-2.9-0.2-4.3-0.6c-1.4-0.4-2.5-1.1-3.6-2.1c-1-1-1.8-2.2-2.4-3.6
		c-0.6-1.5-0.9-3.2-0.9-5.2s0.3-3.7,0.8-5.2s1.3-2.7,2.2-3.7c1-1,2.1-1.7,3.4-2.2s2.7-0.7,4.3-0.7c3,0,5.4,0.9,7,2.7
		s2.4,4.3,2.4,7.6v1c0,0.3,0,0.5,0,0.6h-13.3C271.9,46.8,272,48,272.3,49.1z M278.2,38c-0.5-1.4-1.4-2.1-2.6-2.1
		c-0.7,0-1.2,0.2-1.7,0.7s-0.8,1.1-1.1,1.8c-0.3,0.7-0.5,1.5-0.6,2.4s-0.2,1.8-0.3,2.7h7.1C279,41.2,278.7,39.4,278.2,38z"/>
	<path class="st0" d="M303.5,30.9c-0.1-2-0.2-4-0.3-6c0.5,0.1,1.1,0.1,1.7,0.2c0.6,0,1.3,0.1,2.1,0.1c0.8,0,1.5,0,2.1-0.1
		c0.6,0,1.2-0.1,1.7-0.2c-0.1,2-0.2,4-0.3,6c-0.1,2-0.1,4.3-0.1,6.8V44c0,1.8,0,3.4,0,5.1c0,1.6,0,3,0.1,4.3c1.8,0,3.5,0,5.3-0.1
		s3.5-0.2,5.3-0.5c-0.1,0.3-0.1,0.6-0.1,0.9c0,0.3,0,0.7,0,1.2s0,0.9,0,1.2s0.1,0.5,0.1,0.7c-0.8,0-1.9-0.1-3.1-0.1s-2.9,0-5,0
		c-1.9,0-3.4,0-4.6,0c-1.1,0-2.1,0-2.8,0c-0.7,0-1.2,0-1.6,0s-0.7,0-0.9,0.1c0.1-1.9,0.2-3.9,0.3-5.8c0.1-2,0.1-4.3,0.1-6.8v-6.3
		C303.6,35.1,303.6,32.9,303.5,30.9z"/>
	<path class="st0" d="M325.1,40.7c0.6-1.5,1.5-2.8,2.5-3.9c1-1,2.3-1.8,3.6-2.3s2.8-0.8,4.2-0.8c3.6,0,6.4,1,8.4,3s3,4.8,3,8.3
		c0,1.9-0.3,3.6-0.8,5.1c-0.6,1.5-1.3,2.8-2.3,3.9c-1,1.1-2.2,1.9-3.6,2.4s-2.9,0.8-4.6,0.8c-1.4,0-2.7-0.2-4.1-0.6
		c-1.3-0.4-2.5-1-3.6-1.9s-1.9-2-2.6-3.4s-1-3.2-1-5.2C324.1,44.1,324.4,42.3,325.1,40.7z M338.9,38.1c-0.7-1.5-1.8-2.2-3.4-2.2
		c-1.4,0-2.5,0.8-3.3,2.5s-1.2,4.3-1.2,7.8c0,1.3,0.1,2.5,0.2,3.6c0.2,1.1,0.4,2.1,0.8,2.9c0.4,0.8,0.8,1.5,1.4,1.9
		c0.6,0.5,1.3,0.7,2.1,0.7c3,0,4.4-3.6,4.4-10.9C339.9,41.7,339.6,39.6,338.9,38.1z"/>
	<path class="st0" d="M366.5,36.2c0.8,0.6,1.4,1.3,1.8,2.1s0.7,1.9,0.7,3s-0.2,2.2-0.6,3.1c-0.4,0.9-1,1.7-1.8,2.4s-1.7,1.2-2.8,1.6
		c-1.1,0.4-2.3,0.6-3.7,0.6c-0.3,0-0.7,0-1,0s-0.7,0-1.1,0s-0.7,0.2-0.9,0.5c-0.3,0.3-0.4,0.7-0.4,1.2c0,0.7,0.3,1.3,0.9,1.8
		c0.6,0.4,1.5,0.7,2.7,0.7h3.4c2.6,0,4.5,0.5,5.7,1.5c1.2,0.9,1.8,2.4,1.8,4.5c0,1.8-0.4,3.4-1.1,4.6c-0.8,1.2-1.7,2.3-2.9,3.1
		c-1.2,0.8-2.5,1.3-4,1.7s-2.8,0.5-4.2,0.5c-2.9,0-5.2-0.6-6.8-1.7c-1.6-1.1-2.4-2.6-2.4-4.5c0-1.5,0.4-2.7,1.2-3.6
		c0.8-0.9,1.9-1.6,3.3-2.2V57c-0.8-0.3-1.4-0.7-1.9-1.3s-0.7-1.3-0.7-2.2c0-1,0.4-2,1.2-3c0.8-1,1.8-1.6,3.1-1.9v-0.1
		c-1.9-0.5-3.3-1.3-4.3-2.5s-1.6-2.8-1.6-4.8c0-1.2,0.2-2.2,0.7-3.1c0.5-0.9,1.1-1.7,2-2.3s1.9-1.1,3.1-1.5c1.2-0.3,2.5-0.5,4-0.5
		c0.6,0,1.1,0,1.7,0.1c0.6,0,1.2,0.1,1.7,0.1c0.4,0,0.8,0.1,1.2,0.1c0.4,0,0.9,0,1.4,0c0.8,0,1.6,0,2.4,0s1.7,0,2.5,0
		c0,0.2-0.1,0.4-0.1,0.6c0,0.2,0,0.4,0,0.6c0,0.2,0,0.4,0,0.6c0,0.2,0,0.4,0.1,0.6l-4.1-0.2L366.5,36.2z M365.3,59.3
		c-0.3-0.6-0.7-1-1.3-1.3c-0.6-0.3-1.3-0.5-2.1-0.6c-0.8-0.1-1.8-0.2-2.8-0.2c-1.6,0-2.7,0.2-3.3,0.5c-0.4,0.2-0.8,0.6-1.2,1.3
		c-0.4,0.7-0.6,1.6-0.6,2.7c0,0.9,0.2,1.7,0.5,2.3s0.8,1.2,1.3,1.6c0.6,0.4,1.2,0.8,1.9,1c0.7,0.2,1.5,0.3,2.3,0.3
		c0.9,0,1.7-0.1,2.4-0.4c0.7-0.3,1.3-0.7,1.8-1.2s0.9-1.1,1.2-1.8c0.3-0.7,0.4-1.4,0.4-2.1C365.7,60.6,365.6,59.9,365.3,59.3z
		 M356.4,41.8c0,1,0.1,1.9,0.3,2.6c0.2,0.7,0.4,1.3,0.7,1.7c0.3,0.4,0.6,0.7,1,0.9s0.7,0.3,1.1,0.3c1,0,1.8-0.4,2.3-1.3
		c0.5-0.9,0.7-2.4,0.7-4.5s-0.3-3.6-0.8-4.4c-0.6-0.8-1.2-1.3-2.1-1.3C357.5,35.7,356.4,37.7,356.4,41.8z"/>
	<path class="st0" d="M373.9,40.7c0.6-1.5,1.5-2.8,2.5-3.9c1-1,2.3-1.8,3.6-2.3c1.4-0.5,2.8-0.8,4.2-0.8c3.6,0,6.4,1,8.4,3
		s3,4.8,3,8.3c0,1.9-0.3,3.6-0.8,5.1c-0.6,1.5-1.3,2.8-2.3,3.9c-1,1.1-2.2,1.9-3.6,2.4s-2.9,0.8-4.6,0.8c-1.4,0-2.7-0.2-4.1-0.6
		c-1.3-0.4-2.5-1-3.6-1.9s-1.9-2-2.6-3.4s-1-3.2-1-5.2C372.9,44.1,373.2,42.3,373.9,40.7z M387.7,38.1c-0.7-1.5-1.8-2.2-3.4-2.2
		c-1.4,0-2.5,0.8-3.3,2.5s-1.2,4.3-1.2,7.8c0,1.3,0.1,2.5,0.2,3.6c0.2,1.1,0.4,2.1,0.8,2.9c0.4,0.8,0.8,1.5,1.4,1.9
		c0.6,0.5,1.3,0.7,2.1,0.7c3,0,4.4-3.6,4.4-10.9C388.7,41.7,388.4,39.6,387.7,38.1z"/>
</g>
<g>
	<g>
		<path class="st1" d="M75.6,14.5c1.3,2.9,1.8,5.5,1.6,7.8c-0.3,2.3-1.5,4.5-3.5,6.5c-1.8,1.8-5.3,3.7-10.6,6.1
			c-0.6,0.3-1,0.4-1.3,0.6c-0.2,0.1-0.5,0.2-0.9,0.4c-5.5,2.4-9.4,4.7-11.7,7.1L48,44l1.6,0.4c3.4,0.8,7.6,1,12.7,0.4
			c5.1-0.7,8.2-1,9.3-1c2.9-0.1,5.3,0.2,7.2,0.8s3.5,1.5,4.7,2.8c1,1,1.8,2.2,2.3,3.5c0.5,1.3,0.8,3,1,4.8c-0.3,0.6-0.6,1.1-1,1.6
			c-0.4,0.5-0.7,0.8-1.1,1.2c-2.1,2.1-4.6,3.2-7.4,3.2c-2.8,0-6-1.1-9.8-3.3c-1-0.6-3.5-2.4-7.6-5.5s-7.8-5.1-11-6l-1.6-0.5l0.4,1.7
			c0.8,3.3,2.8,6.9,5.9,11c3.2,4,5.1,6.6,5.7,7.6c2.1,3.5,3.3,6.8,3.2,9.5c0,2.8-1.1,5.3-3.3,7.5c-0.4,0.4-0.7,0.7-1.2,1.1
			c-0.5,0.4-1,0.7-1.6,1c-1.8-0.1-3.5-0.5-4.8-1c-1.3-0.5-2.5-1.3-3.5-2.3c-1.3-1.3-2.2-2.8-2.8-4.6c-0.6-1.8-0.8-4.2-0.8-7.3
			c0.1-0.9,0.4-3.9,1-9.1c0.6-5.1,0.5-9.4-0.4-13l-0.4-1.3l-1.2,1.2c-2.3,2.3-4.6,6.2-6.9,11.6c-0.2,0.5-0.4,0.8-0.5,1.1
			c-1.6,3.9-2.9,6.6-3.8,8.1c-0.9,1.6-1.8,2.8-2.9,3.9c-2,2-4.2,3.2-6.5,3.5s-4.9-0.2-7.8-1.6c-1.3-2.9-1.8-5.5-1.6-7.8
			c0.4-2.3,1.5-4.5,3.5-6.5c1.8-1.8,5.4-3.8,10.7-6.2c0.6-0.3,1-0.4,1.2-0.5c3.7-1.5,6.5-2.8,8.1-3.9c1.8-1.1,3.3-2.3,4.5-3.5
			l1.3-1.3l-1.7-0.4c-3.4-0.8-7.6-0.9-12.7-0.3s-8.2,1-9.3,0.9c-3,0-5.3-0.4-7.2-0.8c-1.8-0.6-3.5-1.5-4.7-2.8
			C6.2,41,5.5,39.8,5,38.5c-0.5-1.3-0.8-3-1-4.8c0.3-0.6,0.6-1,0.9-1.5c0.4-0.4,0.8-0.8,1.3-1.3c2.1-2.1,4.6-3.2,7.4-3.2
			s6,1.1,9.7,3.2c1,0.6,3.5,2.4,7.6,5.6c4,3.2,7.8,5.2,11.1,6l1.6,0.4l-0.5-1.5c-0.9-3.3-3-6.9-6.1-11c-3.1-4.1-4.9-6.6-5.5-7.6
			c-2.1-3.7-3.1-6.9-3.2-9.7c0-2.8,1.1-5.3,3.2-7.4c0.4-0.4,0.8-0.8,1.3-1.1c0.5-0.4,0.9-0.6,1.6-1c1.8,0.1,3.5,0.5,4.8,1
			s2.5,1.3,3.5,2.3c1.3,1.3,2.1,2.8,2.7,4.7c0.6,1.8,0.8,4.3,0.8,7.3c0,1.1-0.3,4.2-1,9.3c-0.6,5.2-0.5,9.3,0.4,12.5l0.5,1.6
			l1.1-1.1c1.3-1.3,2.5-2.8,3.5-4.5c1.1-1.8,2.3-4.5,3.9-8.1c0.1-0.4,0.4-0.8,0.6-1.3c2.3-5.3,4.4-8.9,6.2-10.7
			c2.1-2.1,4.2-3.2,6.5-3.5C70.1,12.7,72.7,13.2,75.6,14.5 M77.1,13l-0.6-0.4c-3.2-1.5-6.2-2.1-8.9-1.7c-2.8,0.4-5.3,1.8-7.6,4.1
			c-2,2-4.1,5.7-6.6,11.2c-0.2,0.5-0.4,1-0.6,1.3c-1.5,3.6-2.8,6.2-3.7,7.8c-0.6,1-1.3,1.8-1.9,2.6c-0.4-2.7-0.4-6,0.1-9.8
			c0.9-7,1-8.8,0.9-9.5c0.1-3.2-0.3-5.8-0.8-7.9c-0.6-2.2-1.8-4-3.3-5.5c-1.2-1.2-2.6-2.1-4.2-2.8c-1.6-0.6-3.4-1-5.4-1.1l-0.6,0
			l-0.6,0.3c-0.7,0.4-1.3,0.8-1.8,1.1c-0.4,0.4-0.9,0.9-1.4,1.4c-2.5,2.5-3.8,5.5-3.7,8.8c0,3.1,1.2,6.7,3.5,10.7
			c0.4,0.7,1.4,2.3,5.7,7.8c2.4,3.1,4.1,5.9,5.1,8.5c-2.5-1-5.4-2.7-8.5-5.1c-5.6-4.3-7.2-5.4-7.8-5.7c-4-2.3-7.5-3.4-10.7-3.5
			c-3.4,0-6.4,1.3-8.8,3.7C4.3,30,3.8,30.4,3.4,31c-0.4,0.5-0.8,1.1-1.1,1.6l-0.3,0.6l0,0.6c0.1,2.1,0.5,3.9,1.1,5.4
			c0.6,1.6,1.6,3,2.8,4.2c1.5,1.5,3.3,2.6,5.5,3.3c2.1,0.6,4.6,0.9,7.8,1c0.7,0,2.5-0.1,9.5-1c3.9-0.5,7.2-0.6,10-0.1
			c-0.8,0.6-1.7,1.3-2.6,1.9c-1.6,1.1-4.2,2.3-7.8,3.7l-0.1,0.1l-0.1,0.1c-0.1,0.1-0.4,0.2-1.1,0.5c-5.7,2.4-9.4,4.6-11.3,6.5
			c-2.3,2.3-3.7,4.8-4.1,7.6c-0.4,2.7,0.2,5.7,1.7,8.9l0.4,0.6l0.6,0.4c3.2,1.5,6.2,2.1,8.9,1.7c2.8-0.4,5.3-1.8,7.6-4.1
			c1.1-1.1,2.2-2.6,3.2-4.3c0.8-1.6,2.1-4.2,3.8-8.2c0.1-0.3,0.3-0.6,0.5-1.1c1.8-4,3.5-7.1,5.2-9.4c0.5,2.9,0.4,6.4-0.1,10.1
			c-0.8,6.9-0.9,8.6-1,9.2l0,0l0,0c0,3.3,0.3,5.8,0.9,7.8c0.7,2.1,1.7,4,3.3,5.5c1.2,1.2,2.6,2.1,4.2,2.8c1.6,0.6,3.4,1,5.4,1.1
			l0.6,0.1l0.6-0.3c0.6-0.4,1.2-0.8,1.8-1.2c0.6-0.4,1-0.8,1.4-1.3c2.5-2.5,3.8-5.5,3.8-8.9c0-3.1-1.2-6.7-3.5-10.6
			c-0.4-0.6-1.4-2.3-5.7-7.8c-2.4-3.1-4.1-5.9-5.1-8.5c2.5,1,5.4,2.7,8.4,5c5.6,4.3,7.1,5.3,7.8,5.7c4,2.3,7.6,3.5,10.7,3.5
			c3.4,0,6.4-1.3,8.8-3.7c0.4-0.4,0.8-0.8,1.3-1.4c0.4-0.6,0.8-1.1,1.1-1.7l0.4-0.5l-0.1-0.6c-0.1-2.1-0.5-3.9-1.1-5.4
			c-0.6-1.6-1.6-3-2.8-4.2c-1.5-1.5-3.4-2.5-5.6-3.3c-2.1-0.6-4.7-1-7.7-0.9c-0.8,0-2.8,0.1-9.6,1c-3.7,0.5-7.1,0.6-9.9,0.1
			c2.3-1.7,5.4-3.5,9.5-5.3l0.8-0.4c0.3-0.1,0.8-0.4,1.3-0.6c5.7-2.4,9.3-4.5,11.3-6.5c2.3-2.3,3.7-4.9,4.1-7.6
			c0.4-2.6-0.2-5.7-1.7-8.9L77.1,13L77.1,13z"/>
	</g>
</g>
<g>
	<g>
		<path class="st2" d="M45.1,88.5c-3.2-1.2-5.5-2.8-7.1-4.8c-1.5-2-2.3-4.6-2.3-7.7c0-2.6,1.1-6.7,3.3-12.3c0.2-0.6,0.4-1,0.4-1.2
			c1.6-3.7,2.6-6.6,3-8.5s0.7-3.7,0.7-5.4c-2.8,1.7-5.8,4.6-8.9,8.5c-3.2,4.1-5.2,6.5-5.9,7.3c-2.1,2.1-4.1,3.7-5.9,4.6
			c-1.9,1-3.8,1.5-5.7,1.5c-1.6,0-3.2-0.3-4.6-1c-1.4-0.6-2.9-1.6-4.3-2.9l-0.2-0.2l-0.1-0.3c-0.2-0.6-0.3-1.2-0.4-1.8
			c-0.2-0.3-0.2-0.9-0.2-1.6c0-3.3,1.1-6.1,3.3-8.2c2.1-2.1,5.3-3.7,9.5-4.8c1.1-0.3,4.2-0.8,9.5-1.5c5-0.6,8.9-1.8,11.7-3.4
			c-2.8-1.6-6.8-2.7-11.7-3.4c-5.2-0.7-8.3-1.2-9.5-1.5c-4.2-1.1-7.4-2.8-9.5-4.8c-2.2-2.2-3.3-4.9-3.3-8.2c0-0.6,0-1.2,0.1-1.8
			c0.1-0.6,0.2-1.2,0.4-2l0.1-0.3l0.2-0.2c1.5-1.3,2.9-2.2,4.4-2.8c1.5-0.6,3-1,4.5-1c1.9,0,3.8,0.5,5.7,1.5c1.8,1,3.8,2.6,6,4.8
			c0.8,0.8,2.8,3.2,6,7.4c3.1,3.9,6,6.7,8.8,8.3c0-1.7-0.2-3.5-0.7-5.4s-1.4-4.7-2.9-8.3c-0.1-0.3-0.3-0.8-0.5-1.3
			c-2.2-5.6-3.3-9.6-3.3-12.3c0-3.1,0.8-5.7,2.3-7.7s3.9-3.6,7-4.7L45.3,1l0.3,0.1c3.2,1.2,5.5,2.7,7.1,4.7s2.3,4.6,2.3,7.7
			c0,2.6-1.1,6.6-3.3,12.2c-0.2,0.6-0.4,1-0.5,1.3l-0.4,0.9c-2.1,5.4-3.2,9.7-3.3,12.8c2.8-1.7,5.8-4.5,8.8-8.4
			c3.2-4.1,5.2-6.6,6-7.4c2.1-2.1,4-3.7,5.9-4.7c1.9-1,3.8-1.5,5.8-1.5c1.5,0,3,0.3,4.5,1c1.4,0.6,2.9,1.6,4.4,2.9l0.2,0.2l0.1,0.3
			c0.2,0.7,0.3,1.3,0.4,1.9s0.1,1.2,0.1,1.8c0,3.3-1.1,6-3.3,8.2c-2.1,2.1-5.3,3.7-9.6,4.9c-1.2,0.3-4.3,0.8-9.5,1.5
			c-4.9,0.7-8.8,1.8-11.6,3.4c2.7,1.7,6.7,2.8,11.6,3.4c5.2,0.7,8.4,1.1,9.5,1.5c4.2,1,7.4,2.6,9.5,4.8c2.2,2.2,3.3,5,3.3,8.3
			c0,0.5,0,1.1-0.1,1.7c-0.1,0.6-0.2,1.3-0.4,2L83,66.8L82.8,67c-1.5,1.3-2.9,2.2-4.4,2.8c-1.5,0.6-3,1-4.5,1
			c-1.9,0-3.9-0.5-5.7-1.5c-1.8-0.9-3.8-2.5-6-4.7c-0.7-0.7-2.5-3-5.7-7.2c-3-3.9-6.1-6.8-9.1-8.6c0,3.1,1.1,7.3,3.2,12.6
			c0.2,0.5,0.3,0.9,0.4,1.2c1.6,3.9,2.6,6.7,3.1,8.5c0.5,1.8,0.7,3.5,0.7,5c0,3-0.8,5.6-2.3,7.7c-1.5,2-3.9,3.6-7.1,4.8l-0.3,0.1
			L45.1,88.5z"/>
		<path class="st1" d="M45.4,2c3,1.1,5.2,2.6,6.6,4.4c1.4,1.8,2.1,4.2,2.1,7.1c0,2.5-1.1,6.4-3.2,11.8c-0.2,0.6-0.4,1-0.5,1.3
			c-0.1,0.2-0.2,0.5-0.4,0.9c-2.2,5.6-3.3,10-3.3,13.3v1.6l1.4-0.8c3-1.8,6.1-4.7,9.2-8.7c3.1-4.1,5.1-6.5,5.9-7.3
			c2-2.1,3.9-3.6,5.7-4.5c1.8-0.9,3.5-1.4,5.3-1.4c1.4,0,2.8,0.3,4.1,0.9c1.3,0.6,2.7,1.5,4.1,2.7c0.2,0.6,0.3,1.2,0.4,1.8
			c0.1,0.6,0.1,1.1,0.1,1.6c0,3-1,5.5-3,7.5s-5,3.5-9.2,4.6c-1.1,0.3-4.2,0.8-9.3,1.5s-9.1,1.9-12,3.5l-1.5,0.8l1.5,0.9
			c2.9,1.8,6.9,2.9,12,3.6c5.1,0.6,8.3,1.1,9.4,1.4c4,1,7.1,2.5,9,4.5c2,2,3,4.5,3,7.6c0,0.5,0,1-0.1,1.6c-0.1,0.6-0.2,1.2-0.4,1.8
			c-1.4,1.2-2.8,2.1-4.1,2.7c-1.3,0.6-2.7,0.9-4.1,0.9c-1.8,0-3.5-0.4-5.2-1.3s-3.6-2.4-5.7-4.6c-0.6-0.7-2.5-3-5.7-7.1
			c-3.2-4-6.3-7-9.5-8.9L46.8,47v1.7c0,3.3,1.1,7.6,3.3,13.1c0.2,0.5,0.3,0.9,0.4,1.1c1.6,3.9,2.6,6.7,3,8.4
			c0.5,1.8,0.7,3.3,0.7,4.8c0,2.8-0.7,5.2-2.1,7.1c-1.4,1.9-3.6,3.3-6.6,4.4c-3-1.1-5.2-2.6-6.6-4.4c-1.4-1.9-2.1-4.2-2.1-7.1
			c0-2.5,1.1-6.5,3.2-11.9c0.2-0.6,0.4-1,0.5-1.2c1.6-3.7,2.6-6.6,3-8.5c0.5-2,0.7-3.9,0.7-5.7V47l-1.5,0.9c-3,1.8-6,4.7-9.2,8.8
			s-5.1,6.5-5.9,7.2c-2.1,2.1-4,3.5-5.7,4.5c-1.7,0.9-3.5,1.4-5.3,1.4c-1.5,0-2.9-0.3-4.2-0.9s-2.7-1.5-4.1-2.7
			c-0.2-0.6-0.3-1.1-0.4-1.7c0-0.6,0-1.2,0-1.8c0-3,1-5.5,3-7.5s5-3.5,9.1-4.6c1.1-0.3,4.2-0.8,9.3-1.4c5.1-0.6,9.2-1.8,12.1-3.6
			l1.4-0.9L41.4,44c-3-1.7-7-2.8-12.1-3.5S21.1,39.3,20,39c-4.1-1.2-7.1-2.7-9.1-4.6c-2-2-3-4.5-3-7.5c0-0.6,0-1.1,0.1-1.7
			c0.1-0.6,0.2-1.1,0.4-1.8c1.4-1.2,2.8-2.1,4.1-2.7s2.7-0.9,4.1-0.9c1.8,0,3.5,0.5,5.2,1.4s3.6,2.5,5.7,4.6
			c0.8,0.8,2.8,3.2,5.9,7.3c3.2,4.1,6.2,6.9,9.1,8.6l1.5,0.8v-1.6c0-1.8-0.2-3.7-0.7-5.7s-1.5-4.8-3-8.5c-0.2-0.4-0.3-0.8-0.5-1.3
			c-2.1-5.4-3.2-9.4-3.2-11.9c0-2.9,0.7-5.2,2.1-7.1C40.2,4.6,42.4,3.1,45.4,2 M45.4-0.1l-0.7,0.2c-3.3,1.2-5.8,2.9-7.5,5.1
			s-2.5,5-2.5,8.3c0,2.8,1.1,6.9,3.3,12.6c0.2,0.5,0.4,1,0.5,1.3c1.5,3.6,2.4,6.3,2.9,8.2c0.3,1.1,0.4,2.2,0.5,3.2
			c-2.2-1.6-4.5-4-6.9-7c-4.3-5.6-5.5-6.9-6.1-7.4c-2.2-2.3-4.3-3.9-6.2-5c-2-1.1-4.1-1.6-6.2-1.6c-1.7,0-3.3,0.4-4.9,1
			c-1.5,0.7-3.1,1.7-4.6,3l-0.4,0.4l-0.2,0.6c-0.2,0.8-0.4,1.5-0.5,2.1c0,0.6,0,1.3,0,2c0,3.6,1.2,6.6,3.6,8.9
			c2.2,2.2,5.6,3.9,10,5.1c0.8,0.2,2.6,0.6,9.6,1.5c3.9,0.5,7.1,1.3,9.6,2.4c-2.5,1.1-5.7,1.9-9.6,2.4c-7,0.9-8.9,1.3-9.6,1.5
			c-4.4,1.2-7.7,2.9-10,5.1c-2.4,2.4-3.6,5.4-3.6,8.9c0,0.7,0,1.3,0.1,2c0.1,0.6,0.2,1.3,0.4,1.9l0.2,0.6L7,67.6
			c1.5,1.4,3.1,2.4,4.6,3.1c1.6,0.7,3.3,1,5,1c2.1,0,4.2-0.5,6.2-1.6c1.9-1,3.9-2.6,6.2-4.8c0.5-0.5,1.7-1.8,6-7.4
			c2.4-3.1,4.7-5.5,7-7.2c-0.1,1-0.3,2.1-0.5,3.2c-0.4,1.9-1.4,4.6-2.9,8.2v0.1v0.1c0,0.1-0.1,0.4-0.4,1.1
			c-2.3,5.7-3.4,9.9-3.4,12.6c0,3.3,0.8,6,2.5,8.3c1.6,2.2,4.2,3.9,7.5,5.1l0.7,0.2l0.7-0.2c3.3-1.2,5.9-2.9,7.5-5.1
			c1.7-2.2,2.5-5,2.5-8.3c0-1.6-0.3-3.4-0.8-5.3c-0.5-1.7-1.5-4.5-3.1-8.5c-0.1-0.3-0.2-0.6-0.4-1.1c-1.6-4.1-2.6-7.5-3-10.3
			c2.4,1.7,4.8,4.2,7.1,7.2c4.3,5.5,5.4,6.7,5.8,7.2l0,0l0,0c2.3,2.3,4.3,3.9,6.2,4.9c2,1,4,1.6,6.2,1.6c1.7,0,3.3-0.4,4.9-1
			c1.5-0.7,3.1-1.7,4.6-3l0.5-0.4l0.2-0.6c0.2-0.7,0.3-1.4,0.4-2.1c0.1-0.7,0.1-1.3,0.1-1.9c0-3.6-1.2-6.6-3.6-9
			c-2.2-2.2-5.6-3.9-10-5c-0.7-0.2-2.6-0.6-9.6-1.5c-3.9-0.5-7.1-1.3-9.6-2.4c2.5-1.1,5.7-1.9,9.5-2.4c7-0.9,8.8-1.3,9.6-1.5
			c4.4-1.2,7.8-2.9,10-5.1c2.4-2.4,3.6-5.4,3.6-8.9c0-0.6,0-1.2-0.1-1.9c-0.1-0.7-0.2-1.3-0.4-2l-0.1-0.6L83.7,22
			c-1.6-1.4-3.1-2.4-4.6-3.1c-1.6-0.7-3.2-1-4.9-1c-2.1,0-4.2,0.6-6.3,1.6c-1.9,1-4,2.6-6.1,4.8c-0.6,0.6-1.9,2-6.1,7.5
			c-2.3,3-4.6,5.4-6.9,7.1c0.4-2.8,1.4-6.3,3-10.5l0.3-0.9c0.1-0.3,0.3-0.8,0.5-1.3c2.3-5.7,3.4-9.8,3.4-12.6c0-3.3-0.9-6.1-2.5-8.3
			c-1.6-2.1-4.2-3.9-7.5-5.1L45.4-0.1L45.4-0.1z"/>
	</g>
</g>
<g>
	<g>
		<path class="st0" d="M15.2,14.5c2.9-1.3,5.5-1.8,7.8-1.6c2.3,0.3,4.5,1.5,6.5,3.5c1.8,1.8,3.7,5.3,6.1,10.6c0.3,0.6,0.4,1,0.6,1.3
			c0.1,0.2,0.2,0.5,0.4,0.9c2.4,5.5,4.7,9.4,7.1,11.7l1.1,1.1l0.4-1.6c0.8-3.4,1-7.6,0.4-12.7c-0.7-5.1-1-8.2-1-9.3
			c-0.1-2.9,0.2-5.3,0.8-7.2c0.6-1.9,1.5-3.5,2.8-4.7c1-1,2.2-1.8,3.5-2.3c1.3-0.5,3-0.8,4.8-1c0.6,0.3,1.1,0.6,1.6,1
			c0.5,0.4,0.8,0.7,1.2,1.1c2.1,2.1,3.2,4.6,3.2,7.4s-1.1,6-3.3,9.8c-0.6,1-2.4,3.5-5.5,7.6s-5.1,7.8-6,11L47,42.9l1.7-0.4
			c3.3-0.8,6.9-2.8,11-5.9c4-3.2,6.6-5.1,7.6-5.7c3.5-2.1,6.8-3.3,9.5-3.2c2.8,0,5.3,1.1,7.5,3.3c0.4,0.4,0.7,0.7,1.1,1.2
			c0.4,0.5,0.7,1,1,1.6c-0.1,1.8-0.5,3.5-1,4.8C85,39.8,84.2,41,83.2,42c-1.3,1.3-2.8,2.2-4.6,2.8c-1.8,0.6-4.2,0.8-7.3,0.8
			c-0.9-0.1-3.9-0.4-9.1-1c-5.1-0.6-9.4-0.5-13,0.4L48,45.4l1.2,1.2c2.3,2.3,6.2,4.6,11.6,6.9c0.5,0.2,0.8,0.4,1.1,0.5
			c3.9,1.6,6.6,2.9,8.1,3.8c1.6,0.9,2.8,1.8,3.9,2.9c2,2,3.2,4.2,3.5,6.5s-0.2,4.9-1.6,7.8c-2.9,1.3-5.5,1.8-7.8,1.6
			c-2.3-0.4-4.5-1.5-6.5-3.5c-1.8-1.8-3.8-5.4-6.2-10.7c-0.3-0.6-0.4-1-0.5-1.2c-1.5-3.7-2.8-6.5-3.9-8.1c-1.1-1.8-2.3-3.3-3.5-4.5
			l-1.3-1.3l-0.4,1.7c-0.8,3.4-0.9,7.6-0.3,12.7s1,8.2,0.9,9.3c0,3-0.4,5.3-0.8,7.2c-0.6,1.8-1.5,3.5-2.8,4.7
			c-1.1,1.1-2.3,1.8-3.6,2.3c-1.3,0.5-3,0.8-4.8,1c-0.6-0.3-1-0.6-1.5-0.9c-0.4-0.4-0.8-0.8-1.3-1.3c-2.1-2.1-3.2-4.6-3.2-7.4
			s1.1-6,3.2-9.7c0.6-1,2.4-3.5,5.6-7.6s5.2-7.8,6-11.1l0.4-1.6L42,47c-3.3,0.9-6.9,3-11,6.1s-6.6,4.9-7.6,5.5
			c-3.7,2.1-6.9,3.1-9.7,3.2c-2.8,0-5.3-1.1-7.4-3.2c-0.4-0.4-0.8-0.8-1.1-1.3s-0.6-0.9-1-1.6c0.1-1.8,0.5-3.5,1-4.8
			c0.5-1.3,1.3-2.5,2.3-3.5c1.3-1.3,2.8-2.1,4.7-2.7s4.3-0.8,7.3-0.8c1.1,0,4.2,0.3,9.3,1c5.2,0.6,9.3,0.5,12.5-0.4l1.6-0.5L41.7,43
			c-1.3-1.3-2.8-2.5-4.5-3.5c-1.8-1.1-4.5-2.3-8.1-3.9c-0.4-0.1-0.8-0.4-1.3-0.6c-5.3-2.3-8.9-4.4-10.7-6.2
			c-2.1-2.1-3.2-4.2-3.5-6.5C13.3,20,13.8,17.4,15.2,14.5 M13.7,13l-0.4,0.6c-1.5,3.2-2.1,6.2-1.7,8.9s1.8,5.3,4.1,7.6
			c2,2,5.7,4.1,11.2,6.6c0.5,0.2,1,0.4,1.3,0.6c3.6,1.5,6.2,2.8,7.8,3.7c1,0.6,1.8,1.3,2.6,1.9c-2.7,0.4-6,0.4-9.8-0.1
			c-7-0.9-8.8-1-9.5-0.9c-3.2-0.1-5.8,0.3-7.9,0.8c-2.2,0.6-4,1.8-5.5,3.3c-1.2,1.2-2.1,2.6-2.8,4.2c-0.6,1.6-1,3.4-1.1,5.4l0,0.6
			l0.3,0.6c0.4,0.7,0.8,1.3,1.1,1.8c0.4,0.4,0.9,0.9,1.4,1.4c2.5,2.5,5.5,3.8,8.8,3.7c3.1,0,6.7-1.2,10.7-3.5
			c0.7-0.4,2.3-1.4,7.8-5.7c3.1-2.4,5.9-4.1,8.5-5.1c-1,2.5-2.7,5.4-5.1,8.5c-4.3,5.6-5.4,7.2-5.7,7.8c-2.3,4-3.4,7.5-3.5,10.7
			c0,3.4,1.3,6.4,3.7,8.8c0.5,0.5,0.9,0.9,1.5,1.3c0.5,0.4,1.1,0.8,1.6,1.1l0.6,0.3h0.6c2.1-0.1,3.9-0.5,5.4-1.1
			c1.6-0.6,3-1.6,4.2-2.8c1.5-1.5,2.6-3.3,3.3-5.5c0.6-2.1,0.9-4.6,1-7.8c0-0.7-0.1-2.5-1-9.5c-0.5-3.9-0.6-7.2-0.1-10
			c0.6,0.8,1.3,1.7,1.9,2.6c1.1,1.6,2.3,4.2,3.7,7.8l0.1,0.1L53,62c0.1,0.1,0.2,0.4,0.5,1.1c2.4,5.7,4.6,9.4,6.5,11.3
			c2.3,2.3,4.8,3.7,7.6,4.1c2.7,0.4,5.7-0.2,8.9-1.7l0.6-0.4l0.4-0.6c1.5-3.2,2.1-6.2,1.7-8.9c-0.4-2.8-1.8-5.3-4.1-7.6
			C74,58.1,72.5,57,70.8,56c-1.6-0.8-4.2-2.1-8.2-3.8c-0.3-0.1-0.6-0.3-1.1-0.5c-4-1.8-7.1-3.5-9.4-5.2c2.9-0.5,6.4-0.4,10.1,0.1
			c6.9,0.8,8.6,0.9,9.2,1l0,0l0,0c3.3,0,5.8-0.3,7.8-0.9c2.1-0.7,4-1.7,5.5-3.3c1.2-1.2,2.1-2.6,2.8-4.2c0.6-1.6,1-3.4,1.1-5.4
			l0.1-0.6l-0.3-0.6c-0.4-0.6-0.8-1.2-1.2-1.8c-0.4-0.6-0.8-1-1.3-1.4c-2.5-2.5-5.5-3.8-8.9-3.8c-3.1,0-6.7,1.2-10.6,3.5
			c-0.6,0.4-2.3,1.4-7.8,5.7c-3.1,2.4-5.9,4.1-8.5,5.1c1-2.5,2.7-5.4,5-8.4c4.3-5.6,5.3-7.1,5.7-7.8c2.3-4,3.5-7.6,3.5-10.7
			c0-3.4-1.3-6.4-3.7-8.8c-0.4-0.4-0.8-0.8-1.4-1.3c-0.6-0.4-1.1-0.8-1.7-1.1L57,1.5l-0.6,0.1c-2.1,0.1-3.9,0.5-5.4,1.1
			c-1.6,0.6-3,1.6-4.2,2.8c-1.5,1.5-2.5,3.4-3.3,5.6c-0.6,2.1-1,4.7-0.9,7.7c0,0.8,0.1,2.8,1,9.6c0.5,3.7,0.6,7.1,0.1,9.9
			c-1.7-2.3-3.5-5.4-5.3-9.5l-0.4-0.8c-0.1-0.3-0.4-0.8-0.6-1.3c-2.4-5.7-4.5-9.3-6.5-11.3c-2.3-2.3-4.9-3.7-7.6-4.1
			c-2.6-0.4-5.7,0.2-8.9,1.7L13.7,13L13.7,13z"/>
	</g>
</g>
</svg>
