<?xml version="1.0" encoding="utf-8"?>
<!-- Generator: Adobe Illustrator 19.2.1, SVG Export Plug-In . SVG Version: 6.00 Build 0)  -->
<svg version="1.1" id="Layer_1" xmlns="http://www.w3.org/2000/svg" xmlns:xlink="http://www.w3.org/1999/xlink" x="0px" y="0px"
	 viewBox="0 0 667.7 150.8" style="enable-background:new 0 0 667.7 150.8;" xml:space="preserve">
<style type="text/css">
	.st0{enable-background:new    ;}
	.st1{fill:#FFFFFF;}
	.st2{fill:#008B8B;}
</style>
<title>AwesomeLogo</title>
<g class="st0">
	<path class="st1" d="M332.7,84.5h-16l-4.2,9.1h-6.1L325,53.8l17.8,39.7h-6.2L332.7,84.5z M330.4,79.2l-5.5-12.7L319,79.2H330.4z"/>
</g>
<g class="st0">
	<path class="st1" d="M332.5,70l6.2,13.5l6.7-15.6l6.7,15.6l6.1-13.5h6.1L352,95.4l-6.6-15.2l-6.6,15.2L326.4,70H332.5z"/>
</g>
<g class="st0">
	<path class="st1" d="M375.9,83.1H359c0.1,1.9,0.8,3.5,1.9,4.6s2.5,1.7,4.3,1.7c1.4,0,2.5-0.3,3.4-1c0.9-0.6,1.9-1.8,3-3.6l4.6,2.6
		c-0.7,1.2-1.5,2.2-2.3,3.1s-1.6,1.6-2.5,2.1c-0.9,0.6-1.9,1-2.9,1.2c-1,0.3-2.2,0.4-3.4,0.4c-3.5,0-6.3-1.1-8.5-3.4
		c-2.1-2.3-3.2-5.3-3.2-9.1c0-3.7,1-6.7,3.1-9.1c2.1-2.3,4.8-3.4,8.3-3.4s6.2,1.1,8.2,3.3c2,2.2,3,5.2,3,9.1L375.9,83.1z
		 M370.3,78.6c-0.8-2.9-2.6-4.4-5.5-4.4c-0.7,0-1.3,0.1-1.9,0.3c-0.6,0.2-1.1,0.5-1.6,0.9s-0.9,0.8-1.2,1.4
		c-0.3,0.5-0.6,1.1-0.8,1.8C359.3,78.6,370.3,78.6,370.3,78.6z"/>
	<path class="st1" d="M395.5,74l-4.5,2.4c-0.7-1.5-1.6-2.2-2.6-2.2c-0.5,0-0.9,0.2-1.3,0.5s-0.5,0.8-0.5,1.3c0,0.9,1,1.8,3.1,2.7
		c2.9,1.2,4.8,2.4,5.8,3.4s1.5,2.5,1.5,4.2c0,2.3-0.8,4.2-2.5,5.7c-1.6,1.5-3.6,2.2-5.9,2.2c-4,0-6.8-1.9-8.4-5.8l4.6-2.2
		c0.6,1.1,1.1,1.8,1.5,2.2c0.7,0.6,1.5,0.9,2.4,0.9c1.8,0,2.8-0.8,2.8-2.5c0-1-0.7-1.9-2.1-2.7c-0.5-0.3-1.1-0.5-1.6-0.8
		s-1.1-0.5-1.7-0.8c-1.6-0.8-2.7-1.5-3.3-2.3c-0.8-1-1.2-2.3-1.2-3.8c0-2.1,0.7-3.7,2.1-5.1c1.4-1.3,3.2-2,5.2-2
		C391.8,69.3,394.1,70.9,395.5,74z"/>
	<path class="st1" d="M400.8,81.6c0-3.4,1.2-6.3,3.7-8.7s5.4-3.6,8.9-3.6s6.5,1.2,9,3.6c2.4,2.4,3.6,5.4,3.6,8.9s-1.2,6.5-3.7,8.9
		s-5.5,3.6-9,3.6s-6.5-1.2-8.9-3.6C402,88.2,400.8,85.2,400.8,81.6z M406.4,81.7c0,2.4,0.6,4.2,1.9,5.6s3,2.1,5.1,2.1
		s3.8-0.7,5.1-2.1s1.9-3.2,1.9-5.5s-0.6-4.1-1.9-5.5s-3-2.1-5.1-2.1s-3.8,0.7-5.1,2.1C407,77.7,406.4,79.5,406.4,81.7z"/>
	<path class="st1" d="M431.8,70h5.4v2.2c1-1.1,1.9-1.8,2.7-2.2c0.8-0.4,1.8-0.6,3-0.6c2.7,0,4.8,1.2,6.3,3.5c1.7-2.3,4-3.5,6.9-3.5
		c5.3,0,8,3.2,8,9.7v14.6h-5.5V80.5c0-2.3-0.3-3.9-0.8-4.8c-0.6-1-1.5-1.4-2.8-1.4c-1.5,0-2.6,0.6-3.3,1.7c-0.7,1.1-1,2.9-1,5.4
		v12.2h-5.5v-13c0-4.2-1.2-6.3-3.6-6.3c-1.5,0-2.7,0.6-3.4,1.7s-1.1,3-1.1,5.4v12.2h-5.4L431.8,70L431.8,70z"/>
	<path class="st1" d="M492.5,83.1h-16.9c0.1,1.9,0.8,3.5,1.9,4.6s2.5,1.7,4.3,1.7c1.4,0,2.5-0.3,3.4-1c0.9-0.6,1.9-1.8,3-3.6
		l4.6,2.6c-0.7,1.2-1.5,2.2-2.3,3.1s-1.6,1.6-2.5,2.1c-0.9,0.6-1.9,1-2.9,1.2c-1,0.3-2.2,0.4-3.4,0.4c-3.5,0-6.3-1.1-8.5-3.4
		c-2.1-2.3-3.2-5.3-3.2-9.1c0-3.7,1-6.7,3.1-9.1c2.1-2.3,4.8-3.4,8.3-3.4s6.2,1.1,8.2,3.3c2,2.2,3,5.2,3,9.1L492.5,83.1z
		 M486.9,78.6c-0.8-2.9-2.6-4.4-5.5-4.4c-0.7,0-1.3,0.1-1.9,0.3c-0.6,0.2-1.1,0.5-1.6,0.9s-0.9,0.8-1.2,1.4
		c-0.3,0.5-0.6,1.1-0.8,1.8C475.9,78.6,486.9,78.6,486.9,78.6z"/>
	<path class="st1" d="M520.4,56.2v32.1h11v5.3h-16.6V56.2H520.4z"/>
	<path class="st1" d="M534.6,81.6c0-3.4,1.2-6.3,3.7-8.7s5.4-3.6,8.9-3.6s6.5,1.2,9,3.6c2.4,2.4,3.6,5.4,3.6,8.9s-1.2,6.5-3.7,8.9
		s-5.5,3.6-9,3.6s-6.5-1.2-8.9-3.6C535.8,88.2,534.6,85.2,534.6,81.6z M540.2,81.7c0,2.4,0.6,4.2,1.9,5.6c1.3,1.4,3,2.1,5.1,2.1
		s3.8-0.7,5.1-2.1s1.9-3.2,1.9-5.5s-0.6-4.1-1.9-5.5c-1.3-1.4-3-2.1-5.1-2.1s-3.8,0.7-5.1,2.1C540.8,77.7,540.2,79.5,540.2,81.7z"/>
	<path class="st1" d="M588.3,93c0,1.1,0,2.1-0.1,2.9s-0.2,1.6-0.3,2.2c-0.4,1.8-1.1,3.3-2.3,4.6c-2.1,2.5-5.1,3.7-8.8,3.7
		c-3.1,0-5.7-0.8-7.8-2.5s-3.3-4.2-3.6-7.2h5.5c0.2,1.2,0.6,2.1,1,2.7c1.1,1.5,2.8,2.2,4.9,2.2c4,0,6-2.4,6-7.3V91
		c-2.2,2.2-4.7,3.3-7.5,3.3c-3.2,0-5.8-1.2-7.9-3.5c-2.1-2.4-3.1-5.3-3.1-8.8c0-3.4,1-6.4,2.9-8.8c2.1-2.6,4.8-3.8,8.2-3.8
		c3,0,5.4,1.1,7.4,3.3V70h5.4L588.3,93L588.3,93z M583.1,81.8c0-2.3-0.6-4.1-1.8-5.5s-2.8-2.1-4.8-2.1c-2.1,0-3.7,0.8-4.9,2.3
		c-1.1,1.4-1.6,3.1-1.6,5.3c0,2.1,0.5,3.9,1.6,5.3c1.2,1.5,2.8,2.3,4.9,2.3c2.1,0,3.7-0.8,4.9-2.3C582.5,85.7,583.1,84,583.1,81.8z"
		/>
	<path class="st1" d="M594.1,81.6c0-3.4,1.2-6.3,3.7-8.7s5.4-3.6,8.9-3.6s6.5,1.2,9,3.6c2.4,2.4,3.6,5.4,3.6,8.9s-1.2,6.5-3.7,8.9
		s-5.5,3.6-9,3.6s-6.5-1.2-8.9-3.6C595.3,88.2,594.1,85.2,594.1,81.6z M599.7,81.7c0,2.4,0.6,4.2,1.9,5.6c1.3,1.4,3,2.1,5.1,2.1
		s3.8-0.7,5.1-2.1s1.9-3.2,1.9-5.5s-0.6-4.1-1.9-5.5c-1.3-1.4-3-2.1-5.1-2.1s-3.8,0.7-5.1,2.1C600.3,77.7,599.7,79.5,599.7,81.7z"/>
</g>
<path class="st2" d="M271.3,41.7l3.2,3.2c-5.3,6.1-6.7,12.8-4.3,19.9c-0.8,1.7-1.8,3.3-3,4.8c-2.2-4.4-3-9.4-2.3-14.2
	C265.6,50.5,267.8,45.9,271.3,41.7z M269.6,75.4l-3.2,3.2c-2.6-2.4-5.9-4.1-9.4-4.8c-3.6-0.7-7.4-0.5-10.8,0.7
	c-1.7-0.8-3.2-1.8-4.6-3.1c4.5-2.2,9.6-3.1,14.6-2.4C261.2,69.8,265.9,72,269.6,75.4z M237.6,75.4l3.2-3.2c2.4,2.4,5.5,4,9.3,4.8
	c3.6,0.8,7.3,0.7,10.7-0.5c1.7,0.8,3.2,1.8,4.6,3c-4.5,2.2-9.5,3-14.4,2.3C246.1,81.1,241.4,78.8,237.6,75.4L237.6,75.4z
	 M271.3,73.7l-3.3-3.3c5.2-6.1,6.6-12.7,4.3-20c0.8-1.7,1.8-3.2,3.1-4.6c2.3,4.8,3.1,9.7,2.4,14.5S274.9,69.6,271.3,73.7L271.3,73.7
	z M305,75.4l-3.2,3.2c-5.6-5-12.3-6.4-20.1-4.3c-1.7-0.7-3.3-1.8-4.6-3c4.4-2.3,9.4-3.1,14.3-2.3C296.5,69.7,301.2,71.9,305,75.4
	L305,75.4z M273,75.4l3.2-3.2c2.7,2.4,6,4.1,9.5,4.9c3.5,0.7,7.1,0.5,10.5-0.6c1.7,0.8,3.2,1.8,4.7,3c-4.3,2.3-9.3,3.2-14.2,2.4
	C281.7,81.1,276.9,78.9,273,75.4L273,75.4z M271.3,77.1l3.4,3.4c-5.1,5.9-6.6,12.5-4.5,19.9c-0.2,0.4-0.3,0.6-0.4,0.8
	c-0.8,1.4-1.7,2.8-2.7,4c-2.5-5.7-3.1-11.3-1.8-16.7C266.4,83.8,268.4,80,271.3,77.1L271.3,77.1z M271.3,109.1l-3.3-3.3
	c2.1-2.1,3.6-4.9,4.6-8.3c1-3.5,0.9-7.4-0.3-11.5c0.8-1.7,1.8-3.3,3-4.7c2.3,4.4,3.1,9.4,2.4,14.3
	C277.1,100.4,274.9,105,271.3,109.1L271.3,109.1z"/>
<path class="st2" d="M289.1,99.9c-5.9-2.3-10.3-5.9-13.3-10.7c-2.6-4.2-3.9-8.5-3.9-12.6v-0.4h5.7v0.4c0.5,7.6,4.1,13.3,10.6,16.9
	l0.2,0.1l0.1,0.2c0.1,0.4,0.2,0.7,0.3,0.9c0.5,1.6,0.8,3.2,0.9,4.9l0.1,0.7L289.1,99.9z M246.9,94.2h0.4c3.3,0,6.6-1,9.8-3.1
	c3-1.9,5.5-4.6,7-7.8l0.1-0.2l0.2-0.1c1.8-0.6,3.6-1,5.5-1.2h0.7l-0.2,0.6c-1.6,4.8-4.7,9-8.7,12c-4.1,3.1-9.1,4.8-14.3,5.1h-0.5
	L246.9,94.2L246.9,94.2z M289.9,99.6v-0.4c0-2.9-0.9-5.9-2.6-8.9c-1.7-3.1-4.5-5.7-8.2-7.8l-0.1-0.1l-0.1-0.2
	c-0.7-1.8-1.1-3.7-1.2-5.6v-0.7l0.6,0.2c4.8,1.6,9,4.6,12,8.6s4.7,8.9,5.1,14.4v0.5H289.9L289.9,99.6z M246.7,94l0.2-0.6
	c1.6-4.9,4.7-9.1,8.8-12.2c4.1-3.1,9.1-4.9,14.2-5.1h0.5v5.4H270c-3.5,0.2-6.9,1.2-9.8,3.2c-3,2-5.4,4.8-7,8l-0.1,0.2l-0.2,0.1
	c-1.8,0.6-3.7,1-5.6,1.1L246.7,94L246.7,94z M264.1,74.6c-4.8-1.6-8.9-4.6-11.9-8.6s-4.7-8.9-5.2-14.4v-0.5h5.4v0.4
	c0.6,7.8,4.2,13.5,10.8,16.7l0.2,0.1l0.1,0.2c0.7,1.8,1.1,3.7,1.3,5.6l0.1,0.7L264.1,74.6z M272,69.1h0.4c3.5-0.2,7-1.3,10-3.2
	c2.9-1.9,5.3-4.6,6.9-7.7l0.1-0.2l0.2-0.1c1.8-0.6,3.6-1,5.5-1.2h0.6l-0.2,0.6c-1.4,4.8-4.4,9-8.5,12c-4.2,3.1-9.3,5-14.5,5.2H272
	V69.1L272,69.1z M264.9,74.6v-0.4c-0.6-7.8-4.3-13.4-10.9-16.8l-0.2-0.1l-0.1-0.2c-0.6-1.8-1-3.7-1.1-5.6v-0.7l0.6,0.2
	c5.1,1.8,9.2,4.8,12.1,8.7s4.7,8.8,5.1,14.3v0.5L264.9,74.6L264.9,74.6z M272,68.2c1.5-4.8,4.5-9,8.6-12c4.2-3.1,9.2-4.9,14.4-5.1
	h0.4v5.4H295c-7.3,0.4-13,4.1-16.9,11l-0.1,0.1l-0.1,0.1c-1.8,0.7-3.6,1.1-5.6,1.1h-0.6L272,68.2z"/>
<path class="st1" d="M295,51.5V56c-7.5,0.4-13.2,4.2-17.2,11.2c-1.7,0.7-3.6,1-5.4,1.1c1.5-4.7,4.5-8.9,8.5-11.8
	C285,53.5,289.9,51.8,295,51.5 M253.1,51.5c5,1.8,9,4.7,11.9,8.6s4.6,8.6,5,14h-4.6c-0.6-8-4.3-13.7-11.1-17.2
	C253.6,55.2,253.2,53.4,253.1,51.5 M251.9,51.5c0.6,8,4.3,13.7,11.1,17.1c0.7,1.8,1.1,3.6,1.2,5.5c-4.7-1.5-8.8-4.5-11.7-8.4
	c-3-4-4.7-8.7-5.1-14.2L251.9,51.5 M295,57.2c-1.4,4.7-4.3,8.9-8.3,11.8c-4.1,3.1-9.1,4.9-14.3,5.2v-4.6c3.6-0.2,7.1-1.3,10.2-3.3
	c3-2,5.4-4.7,7-7.9C291.4,57.8,293.2,57.4,295,57.2 M278.2,76.6c4.7,1.5,8.8,4.5,11.8,8.4c3,4,4.6,8.7,5,14.2h-4.6
	c0-3-0.9-6-2.6-9.1c-1.8-3.2-4.6-5.9-8.4-8C278.7,80.3,278.3,78.5,278.2,76.6 M277.2,76.6c0.5,7.8,4.2,13.5,10.9,17.3
	c0.1,0.4,0.2,0.7,0.2,0.9c0.5,1.6,0.8,3.2,0.9,4.8c-5.8-2.3-10.2-5.8-13.1-10.5c-2.5-4.2-3.8-8.3-3.8-12.4L277.2,76.6 M270,76.6v4.5
	c-3.6,0.1-7,1.3-10,3.2c-3.1,2.1-5.5,4.9-7.2,8.2c-1.7,0.6-3.6,1-5.4,1.1c1.6-4.8,4.6-9,8.6-12C260,78.6,264.9,76.8,270,76.6
	 M270,82.4c-1.6,4.7-4.6,8.8-8.6,11.8c-4.1,3-9,4.7-14,5v-4.5c3.4,0,6.7-1.1,10-3.2c3.1-1.9,5.6-4.7,7.2-7.9
	C266.3,83,268.1,82.6,270,82.4 M252.1,50.2v0.4h-5.7l0.1,1c0.4,5.6,2.2,10.5,5.3,14.6c3,4.1,7.3,7.2,12.1,8.8l1.3,0.4V75h5.8l-0.1-1
	c-0.4-5.6-2.2-10.5-5.2-14.5s-7.1-7-12.3-8.9L252.1,50.2L252.1,50.2L252.1,50.2z M263.1,67.7c-4.4-2.2-7.3-5.5-8.9-9.8
	C258.5,60.3,261.4,63.5,263.1,67.7L263.1,67.7z M295.9,50.6H295c-5.3,0.2-10.4,2.1-14.6,5.2c-4.2,3-7.3,7.3-8.8,12.2l-0.4,1.2h0.3
	V75l1-0.1c5.3-0.3,10.5-2.1,14.7-5.3c4.2-3,7.2-7.3,8.7-12.2l0.4-1.2H296L295.9,50.6L295.9,50.6L295.9,50.6z M278.9,67.2
	c2.6-4.3,5.8-7.3,9.8-8.9c-1.5,2.9-3.8,5.4-6.5,7.2C281.1,66.2,280,66.8,278.9,67.2L278.9,67.2L278.9,67.2z M277.3,75.3v0.4h-5.8
	v0.9c0,4.2,1.3,8.5,3.9,12.9c3,4.9,7.5,8.6,13.5,10.9l1.3,0.5l-0.1-0.8h5.7l-0.1-1c-0.4-5.6-2.1-10.5-5.2-14.6s-7.3-7.2-12.2-8.8
	L277.3,75.3L277.3,75.3L277.3,75.3z M288.1,92.8c-4.2-2.4-7-5.6-8.6-9.6c3.3,2,5.8,4.4,7.4,7.3C287.4,91.2,287.8,92,288.1,92.8
	L288.1,92.8L288.1,92.8z M270.9,75.6l-0.9,0.1c-5.2,0.3-10.3,2.1-14.5,5.2c-4.2,3.1-7.3,7.5-8.9,12.4l-0.4,1.2h0.4v5.7l1-0.1
	c5.2-0.3,10.3-2,14.5-5.1c4.1-3.1,7.2-7.4,8.9-12.2l0.4-1.3H271L270.9,75.6L270.9,75.6L270.9,75.6z M253.9,92.4
	c1.6-2.9,3.8-5.4,6.6-7.3c1-0.7,2.1-1.2,3.2-1.7c-1.5,3-3.9,5.6-6.8,7.4C256,91.4,255,91.9,253.9,92.4L253.9,92.4z"/>
</svg>
